<svg xmlns="http://www.w3.org/2000/svg" width="128" height="128" viewBox="0 0 128 128">
  <path d="m0 17.125 2.824 18.578 2.91 18.41 2.829 18.492 2.91 18.493 2.824 18.41L17.21 128l18.406-2.91-2.824-18.41-2.914-18.493 18.496-2.824 2.91 18.407 2.828 18.496 18.492-2.829-2.91-18.492-2.828-18.496 18.41-2.824 2.91 18.41 2.825 18.492 18.496-2.824L128 110.79l-2.91-18.492-2.824-18.41-2.914-18.492-2.825-18.493-2.91-18.41L110.79 0 92.297 2.824l-18.41 2.91-18.492 2.829-18.493 2.91-18.41 2.828Zm24.145 34.246 18.492-2.91 2.914 18.492-18.496 2.828Zm36.988-5.738 18.492-2.91 2.824 18.496-18.492 2.824Zm0 0" fill="#e46ca7" />
</svg>
